<svg viewBox="0 0 13 22" fill="none" xmlns="http://www.w3.org/2000/svg">
<path d="M12.1767 19.5423L12.3536 19.3655L12.1768 19.1887L3.9886 11L12.1753 2.8113L12.352 2.63453L12.1752 2.45777L10.5408 0.823229L10.364 0.64642L10.1872 0.823244L1.27703 9.73555C1.27688 9.73569 1.27674 9.73583 1.2766 9.73597C1.10978 9.90186 0.977384 10.0991 0.887012 10.3163C0.796564 10.5337 0.75 10.7668 0.75 11.0023C0.75 11.2378 0.796564 11.4709 0.887012 11.6883C0.977421 11.9056 1.10989 12.1029 1.27681 12.2689C1.27688 12.2689 1.27695 12.269 1.27703 12.2691L10.1873 21.1768L10.364 21.3535L10.5407 21.1769L12.1767 19.5423Z" fill="#2B2B2B" stroke="#2B2B2B" stroke-width="0.5"/>
</svg>
