<svg viewBox="0 0 24 17" fill="none" xmlns="http://www.w3.org/2000/svg">
<path d="M7.93586 2.337C9.17862 1.78429 10.5237 1.49912 11.8839 1.5C14.8389 1.5 17.1929 2.815 18.9439 4.364C20.6999 5.917 21.8099 7.671 22.2509 8.444C22.2614 8.46038 22.267 8.4795 22.2669 8.499C22.2677 8.5203 22.2618 8.54132 22.2499 8.559C21.7993 9.33765 21.2877 10.0793 20.7199 10.777C20.6538 10.8529 20.6037 10.9413 20.5725 11.0369C20.5413 11.1326 20.5297 11.2335 20.5383 11.3337C20.5469 11.434 20.5756 11.5314 20.6227 11.6203C20.6698 11.7093 20.7342 11.7878 20.8123 11.8513C20.8903 11.9148 20.9803 11.9619 21.077 11.9899C21.1736 12.0178 21.2749 12.0261 21.3748 12.0141C21.4747 12.0022 21.5711 11.9702 21.6584 11.9202C21.7457 11.8702 21.822 11.8031 21.8829 11.723C22.5046 10.9632 23.0631 10.1539 23.5529 9.303C23.6928 9.05929 23.7666 8.78318 23.7668 8.50213C23.7669 8.22108 23.6935 7.94489 23.5539 7.701C23.0689 6.851 21.8639 4.944 19.9379 3.241C18.0079 1.534 15.3159 0 11.8839 0C10.1889 0 8.66886 0.374 7.33186 0.963C7.15077 1.04373 7.00902 1.19289 6.9376 1.37785C6.86618 1.56281 6.87091 1.76853 6.95075 1.95001C7.03058 2.1315 7.17904 2.27398 7.36364 2.34632C7.54825 2.41865 7.75398 2.41594 7.93586 2.337ZM19.0499 14.487C17.2119 15.88 14.8169 17 11.8839 17C8.45186 17 5.75886 15.466 3.82986 13.76C1.90386 12.056 0.69786 10.148 0.21386 9.298C0.0735824 9.05468 -0.000175224 8.77872 3.1259e-07 8.49787C0.000175849 8.21701 0.0742783 7.94114 0.21486 7.698C1.1097 6.14725 2.22728 4.73622 3.53186 3.51L1.20086 1.862C1.11734 1.80645 1.04581 1.7347 0.990503 1.65102C0.935199 1.56733 0.897245 1.4734 0.878886 1.37478C0.860528 1.27617 0.862138 1.17487 0.883622 1.07689C0.905106 0.978903 0.946028 0.886226 1.00396 0.804338C1.0619 0.722451 1.13568 0.653018 1.22092 0.600149C1.30617 0.547279 1.40115 0.512047 1.50026 0.496537C1.59936 0.481028 1.70057 0.485556 1.79789 0.509855C1.89522 0.534153 1.98668 0.577728 2.06686 0.638L22.5669 15.138C22.6504 15.1936 22.7219 15.2653 22.7772 15.349C22.8325 15.4327 22.8705 15.5266 22.8888 15.6252C22.9072 15.7238 22.9056 15.8251 22.8841 15.9231C22.8626 16.0211 22.8217 16.1138 22.7638 16.1957C22.7058 16.2775 22.632 16.347 22.5468 16.3999C22.4616 16.4527 22.3666 16.488 22.2675 16.5035C22.1684 16.519 22.0671 16.5144 21.9698 16.4901C21.8725 16.4658 21.781 16.4223 21.7009 16.362L19.0499 14.487ZM4.78586 4.398C3.05586 5.939 1.95786 7.671 1.51786 8.442C1.50615 8.4594 1.5002 8.48004 1.50086 8.501C1.49953 8.51633 1.50486 8.53467 1.51686 8.556C1.95786 9.33 3.06786 11.083 4.82386 12.636C6.57386 14.185 8.92886 15.5 11.8839 15.5C14.2179 15.5 16.1739 14.68 17.7579 13.573L14.2419 11.086C13.6522 11.6243 12.8963 11.9448 12.0994 11.9944C11.3026 12.044 10.5127 11.8197 9.86092 11.3586C9.20911 10.8976 8.73451 10.2275 8.51587 9.45966C8.29722 8.69179 8.34768 7.87225 8.65886 7.137L4.78586 4.399V4.398Z" fill="black"/>
</svg>
