<svg width="20" height="20" viewBox="0 0 20 20" fill="none" xmlns="http://www.w3.org/2000/svg">
<path d="M0.548871 0.548871C0.900459 0.197721 1.37705 0.000482831 1.87396 0.000482831C2.37088 0.000482831 2.84747 0.197721 3.19906 0.548871L9.99953 7.34685L16.8 0.548871C16.974 0.374858 17.1806 0.236822 17.408 0.142647C17.6353 0.0484714 17.879 4.85107e-09 18.1251 0C18.3712 -4.85107e-09 18.6149 0.0484714 18.8422 0.142647C19.0696 0.236822 19.2762 0.374858 19.4502 0.548871C19.6242 0.722885 19.7622 0.929469 19.8564 1.15683C19.9506 1.38419 19.9991 1.62787 19.9991 1.87396C19.9991 2.12006 19.9506 2.36374 19.8564 2.5911C19.7622 2.81846 19.6242 3.02504 19.4502 3.19906L12.6522 9.99953L19.4502 16.8C19.8016 17.1514 19.9991 17.6281 19.9991 18.1251C19.9991 18.6221 19.8016 19.0988 19.4502 19.4502C19.0988 19.8016 18.6221 19.9991 18.1251 19.9991C17.6281 19.9991 17.1514 19.8016 16.8 19.4502L9.99953 12.6522L3.19906 19.4502C2.84762 19.8016 2.37097 19.9991 1.87396 19.9991C1.37696 19.9991 0.900308 19.8016 0.548871 19.4502C0.197435 19.0988 0 18.6221 0 18.1251C0 17.6281 0.197435 17.1514 0.548871 16.8L7.34685 9.99953L0.548871 3.19906C0.197721 2.84747 0.000482831 2.37088 0.000482831 1.87396C0.000482831 1.37705 0.197721 0.900459 0.548871 0.548871Z" fill="#2B2B2B"/>
</svg>
