<svg width="254" height="254" viewBox="0 0 254 254" fill="none" xmlns="http://www.w3.org/2000/svg">
<path fill-rule="evenodd" clip-rule="evenodd" d="M127 254C197.14 254 254 197.14 254 127C254 56.8599 197.14 0 127 0C56.8599 0 0 56.8599 0 127C0 197.14 56.8599 254 127 254ZM196 98.02C196 75.9399 178.06 58 155.98 58H98.02C87.4062 58 77.2266 62.2163 69.7217 69.7217C62.2163 77.2268 58 87.406 58 98.02V155.98C58 178.06 75.9399 196 98.02 196H155.98C166.594 196 176.773 191.784 184.278 184.278C191.784 176.773 196 166.594 196 155.98V98.02ZM79.0757 79.0754C83.7339 74.417 90.0522 71.8 96.6401 71.8H157.36C171.091 71.8 182.2 82.9089 182.2 96.6399V157.36C182.2 163.948 179.583 170.266 174.924 174.925C170.266 179.583 163.948 182.2 157.36 182.2H96.6401C82.9092 182.2 71.7998 171.091 71.7998 157.36V96.6399C71.7998 90.052 74.417 83.7339 79.0757 79.0754ZM169.324 84.6763C167.707 83.0586 165.513 82.1499 163.225 82.1499C160.938 82.1499 158.744 83.0586 157.126 84.6763C155.509 86.2937 154.6 88.4875 154.6 90.7749C154.6 93.0625 155.509 95.2563 157.126 96.8738C158.744 98.4912 160.938 99.3999 163.225 99.3999C165.513 99.3999 167.707 98.4912 169.324 96.8738C170.941 95.2563 171.85 93.0625 171.85 90.7749C171.85 88.4875 170.941 86.2937 169.324 84.6763ZM151.395 102.605C144.925 96.1348 136.15 92.5 127 92.5C117.85 92.5 109.075 96.1348 102.605 102.605C96.1348 109.075 92.5 117.85 92.5 127C92.5 136.15 96.1348 144.925 102.605 151.395C109.075 157.865 117.85 161.5 127 161.5C136.15 161.5 144.925 157.865 151.395 151.395C157.865 144.925 161.5 136.15 161.5 127C161.5 117.85 157.865 109.075 151.395 102.605ZM112.363 112.363C116.245 108.481 121.51 106.3 127 106.3C132.49 106.3 137.755 108.481 141.637 112.363C145.519 116.245 147.7 121.51 147.7 127C147.7 132.49 145.519 137.755 141.637 141.637C137.755 145.519 132.49 147.7 127 147.7C121.51 147.7 116.245 145.519 112.363 141.637C108.481 137.755 106.3 132.49 106.3 127C106.3 121.51 108.481 116.245 112.363 112.363Z" fill="#EB5A48"/>
</svg>
