<svg viewBox="0 0 24 18" fill="none" xmlns="http://www.w3.org/2000/svg">
<path d="M11.9829 1C8.15564 1 4.22969 3.50611 1.13901 8.51833C1.05079 8.66297 1.00245 8.83396 1.00009 9.00967C0.997731 9.18539 1.04146 9.35795 1.12576 9.50556C3.50048 13.7111 7.37389 17 11.9829 17C16.5418 17 20.4948 13.7011 22.8739 9.48611C22.9562 9.34139 23 9.17293 23 9.00083C23 8.82874 22.9562 8.66027 22.8739 8.51556C20.4894 4.34889 16.5074 1 11.9829 1Z" stroke="black" stroke-width="1.45833" stroke-linecap="round" stroke-linejoin="round"/>
<path d="M12 12C13.6569 12 15 10.6569 15 9C15 7.34315 13.6569 6 12 6C10.3431 6 9 7.34315 9 9C9 10.6569 10.3431 12 12 12Z" fill="black" stroke="black" stroke-width="1.09375" stroke-miterlimit="10"/>
</svg>
