<svg width="80" height="80" viewBox="0 0 80 80" fill="none" xmlns="http://www.w3.org/2000/svg">
<path d="M73.7778 80L45.7778 52C43.5556 53.7778 41 55.1852 38.1111 56.2222C35.2222 57.2593 32.1482 57.7778 28.8889 57.7778C20.8148 57.7778 13.9822 54.9807 8.39111 49.3867C2.8 43.7926 0.00296531 36.96 2.35156e-06 28.8889C-0.00296061 20.8178 2.79408 13.9852 8.39111 8.39111C13.9882 2.79704 20.8207 0 28.8889 0C36.957 0 43.7911 2.79704 49.3911 8.39111C54.9911 13.9852 57.7867 20.8178 57.7778 28.8889C57.7778 32.1481 57.2593 35.2222 56.2222 38.1111C55.1852 41 53.7778 43.5556 52 45.7778L80 73.7778L73.7778 80ZM28.8889 48.8889C34.4444 48.8889 39.1674 46.9452 43.0578 43.0578C46.9482 39.1704 48.8919 34.4474 48.8889 28.8889C48.8859 23.3304 46.9422 18.6089 43.0578 14.7244C39.1733 10.84 34.4504 8.89482 28.8889 8.88889C23.3274 8.88296 18.6059 10.8281 14.7244 14.7244C10.843 18.6207 8.89778 23.3422 8.88889 28.8889C8.88 34.4356 10.8252 39.1585 14.7244 43.0578C18.6237 46.957 23.3452 48.9007 28.8889 48.8889Z" fill="white"/>
</svg>
