<svg width="100" height="20" viewBox="0 0 100 20" fill="none" xmlns="http://www.w3.org/2000/svg">
<path d="M49.9995 1.61804L51.7691 7.06434L51.8814 7.40983H52.2447H57.9712L53.3383 10.7758L53.0444 10.9894L53.1567 11.3348L54.9263 16.7812L50.2934 13.4152L49.9995 13.2016L49.7056 13.4152L45.0727 16.7812L46.8423 11.3348L46.9546 10.9894L46.6607 10.7758L42.0278 7.40983H47.7544H48.1176L48.2299 7.06434L49.9995 1.61804Z" fill="#0886CE" stroke="#0886CE"/>
<path d="M10 1.61804L11.7696 7.06434L11.8819 7.40983H12.2451H17.9717L13.3388 10.7758L13.0449 10.9894L13.1572 11.3348L14.9268 16.7812L10.2939 13.4152L10 13.2016L9.70611 13.4152L5.0732 16.7812L6.84282 11.3348L6.95507 10.9894L6.66118 10.7758L2.02828 7.40983H7.75486H8.11813L8.23039 7.06434L10 1.61804Z" fill="#0886CE" stroke="#0886CE"/>
<path d="M30.0005 1.61804L31.7701 7.06434L31.8824 7.40983H32.2456H37.9722L33.3393 10.7758L33.0454 10.9894L33.1577 11.3348L34.9273 16.7812L30.2944 13.4152L30.0005 13.2016L29.7066 13.4152L25.0737 16.7812L26.8433 11.3348L26.9556 10.9894L26.6617 10.7758L22.0288 7.40983H27.7553H28.1186L28.2309 7.06434L30.0005 1.61804Z" fill="#0886CE" stroke="#0886CE"/>
<path d="M70 1.61804L71.7696 7.06434L71.8819 7.40983H72.2451H77.9717L73.3388 10.7758L73.0449 10.9894L73.1572 11.3348L74.9268 16.7812L70.2939 13.4152L70 13.2016L69.7061 13.4152L65.0732 16.7812L66.8428 11.3348L66.9551 10.9894L66.6612 10.7758L62.0283 7.40983H67.7549H68.1181L68.2304 7.06434L70 1.61804Z" fill="#0886CE" stroke="#0886CE"/>
<path d="M90 1.61804L91.7696 7.06434L91.8819 7.40983H92.2451H97.9717L93.3388 10.7758L93.0449 10.9894L93.1572 11.3348L94.9268 16.7812L90.2939 13.4152L90 13.2016L89.7061 13.4152L85.0732 16.7812L86.8428 11.3348L86.9551 10.9894L86.6612 10.7758L82.0283 7.40983H87.7549H88.1181L88.2304 7.06434L90 1.61804Z" stroke="#0886CE"/>
</svg>
