<svg width="106" height="22" viewBox="0 0 106 22" fill="none" xmlns="http://www.w3.org/2000/svg">
<path d="M53.0004 0L55.3802 7.32442H63.0816L56.8511 11.8512L59.2309 19.1756L53.0004 14.6488L46.7699 19.1756L49.1497 11.8512L42.9192 7.32442H50.6205L53.0004 0Z" fill="#2CA9F0"/>
<path d="M10.6 0L12.9798 7.32442H20.6812L14.4507 11.8512L16.8305 19.1756L10.6 14.6488L4.36948 19.1756L6.74932 11.8512L0.518801 7.32442H8.22015L10.6 0Z" fill="#2CA9F0"/>
<path d="M31.8002 0L34.18 7.32442H41.8814L35.6509 11.8512L38.0307 19.1756L31.8002 14.6488L25.5697 19.1756L27.9495 11.8512L21.719 7.32442H29.4203L31.8002 0Z" fill="#2CA9F0"/>
<path d="M74.1996 0L76.5795 7.32442H84.2808L78.0503 11.8512L80.4301 19.1756L74.1996 14.6488L67.9691 19.1756L70.3489 11.8512L64.1184 7.32442H71.8198L74.1996 0Z" fill="#2CA9F0"/>
<path d="M95.3998 1.61804L97.3041 7.47893L97.4164 7.82442H97.7797H103.942L98.9566 11.4467L98.6627 11.6602L98.775 12.0057L100.679 17.8666L95.6937 14.2443L95.3998 14.0308L95.1059 14.2443L90.1203 17.8666L92.0247 12.0057L92.1369 11.6602L91.843 11.4467L86.8574 7.82442H93.02H93.3832L93.4955 7.47893L95.3998 1.61804Z" stroke="#0886CE"/>
</svg>
