<svg width="254" height="254" viewBox="0 0 254 254" fill="none" xmlns="http://www.w3.org/2000/svg">
<path fill-rule="evenodd" clip-rule="evenodd" d="M127 254C197.14 254 254 197.14 254 127C254 56.8599 197.14 0 127 0C56.8599 0 0 56.8599 0 127C0 197.14 56.8599 254 127 254ZM186.993 83.2542C193.468 82.4258 199.718 80.6941 205.515 78.0588C201.148 84.6094 195.727 90.3318 189.402 94.8494C189.46 95.9568 189.474 97.019 189.477 98.106L189.478 99.0659C189.478 141.758 156.875 191 97.5435 191C79.3223 191 62.3057 185.654 48 176.468C50.5601 176.77 53.1201 176.92 55.6802 176.92C70.2422 176.991 84.3945 172.105 95.8115 163.066C89.0762 162.943 82.5488 160.713 77.1465 156.688C71.7441 152.663 67.7393 147.047 65.6943 140.628C70.5132 141.584 75.4888 141.403 80.2261 140.101C65.4683 137.165 54.3247 124.063 54.3247 108.402V108.177C58.6919 110.435 63.6611 111.941 69.0068 111.941C60.2729 106.294 54.626 96.3552 54.626 85.1365C54.626 79.2634 56.207 73.6917 58.9932 68.9482C74.8799 88.4495 98.748 101.325 125.553 102.68C125.026 100.346 124.725 97.8611 124.725 95.3013C124.725 77.4565 139.181 63 156.875 63C166.362 63 174.72 66.7646 180.668 73.24C187.972 71.7341 194.899 69.0989 201.148 65.3342C198.739 72.9387 193.619 79.2634 186.993 83.2542Z" fill="#EB5A48"/>
</svg>
