<svg width="268" height="268" viewBox="0 0 268 268" fill="none" xmlns="http://www.w3.org/2000/svg">
<path fill-rule="evenodd" clip-rule="evenodd" d="M134 268C208.006 268 268 208.006 268 134C268 59.9938 208.006 0 134 0C59.9938 0 0 59.9938 0 134C0 208.006 59.9938 268 134 268ZM160.451 70.6009C168.747 74.0538 176.274 79.1283 182.593 85.5284C195.483 98.4519 202.582 115.66 202.582 133.974C202.582 171.709 171.91 202.463 134.275 202.463C122.833 202.463 111.598 199.56 101.604 194.1L65.4169 203.637L75.0667 168.115C69.139 157.748 65.9683 146 65.9683 133.905C65.9683 96.1713 96.641 65.4173 134.275 65.4173C143.257 65.386 152.156 67.1481 160.451 70.6009ZM105.326 182.904C114.08 188.088 124.074 190.852 134.275 190.852C165.568 190.852 191.071 165.35 190.934 133.974C190.961 126.491 189.507 119.076 186.656 112.159C183.804 105.243 179.612 98.9631 174.322 93.6833C163.638 82.9022 149.37 76.9587 134.206 76.9587C102.913 76.9587 77.4103 102.529 77.4103 133.905C77.4181 144.612 80.4275 155.101 86.0951 164.176L87.4737 166.318L81.7527 187.327L103.258 181.66L105.326 182.904ZM163.16 147.174C164.185 147.675 165.008 148.077 165.43 148.28C165.771 148.444 166.085 148.589 166.373 148.723C167.541 149.262 168.283 149.605 168.67 150.215C169.153 150.976 169.153 154.362 167.705 158.37C166.326 162.379 159.503 166.042 156.194 166.525C153.23 166.94 149.508 167.147 145.442 165.834C142.96 165.074 139.789 164.037 135.723 162.24C119.38 155.171 108.393 139.068 106.736 136.639C106.659 136.528 106.603 136.445 106.567 136.393L106.553 136.375C105.675 135.202 99.6049 127.089 99.6049 118.701C99.6049 110.922 103.36 106.79 105.132 104.841C105.281 104.677 105.415 104.529 105.533 104.395C107.118 102.668 108.91 102.253 110.082 102.253H113.39C113.51 102.261 113.635 102.263 113.765 102.264C114.758 102.276 116.031 102.292 117.25 105.225C118.629 108.68 122.075 117.112 122.489 117.941C122.902 118.77 123.178 119.738 122.627 120.913C122.58 121.007 122.534 121.099 122.49 121.188C122.013 122.15 121.66 122.861 120.903 123.746C120.639 124.055 120.361 124.392 120.08 124.733C119.481 125.459 118.869 126.2 118.353 126.718C117.457 127.616 116.63 128.515 117.595 130.243C118.629 131.97 122.006 137.568 127.107 142.129C132.647 147.093 137.481 149.177 139.844 150.195C140.244 150.368 140.574 150.51 140.823 150.63C142.547 151.528 143.58 151.39 144.545 150.215C145.51 149.11 148.75 145.239 149.922 143.512C151.094 141.853 152.196 142.129 153.782 142.682C154.927 143.152 160.001 145.631 163.16 147.174Z" fill="#EB5A48"/>
</svg>
