<svg width="268" height="268" viewBox="0 0 268 268" fill="none" xmlns="http://www.w3.org/2000/svg">
<path fill-rule="evenodd" clip-rule="evenodd" d="M134 268C208.006 268 268 208.006 268 134C268 59.9939 208.006 0 134 0C59.9937 0 0 59.9939 0 134C0 208.006 59.9937 268 134 268ZM187.066 77L147.51 126.024L194.65 191.905H156.214L127.138 151.286L94.3613 191.905H76.7002L118.847 139.681L74 77H112.436L139.22 114.442L169.411 77H187.066ZM125.535 131.373L133.836 142.973L162.184 182.557H175.455L140.88 134.246L132.59 122.64L106.576 86.3474H93.3042L125.535 131.373Z" fill="#EB5A48"/>
</svg>
